C:\Users\Nicos\Documents\OpenSimProjects\SprintingProject\Study1\PredictiveResults\IC_pred_Sprinting_optimum_26-October-2023__20-13-02_p02_maxVel_01___IKTD_Plus_6_GRF.mot
version=1
nRows=9
nColumns=127
inDegrees=yes
endheader
time	ground_force_vx	ground_force_vy	ground_force_vz	ground_force_px	ground_force_py	ground_force_pz	ground_torque_x	ground_torque_y	ground_torque_z	1_ground_force_vx	1_ground_force_vy	1_ground_force_vz	1_ground_force_px	1_ground_force_py	1_ground_force_pz	1_ground_torque_x	1_ground_torque_y	1_ground_torque_z	2_ground_force_vx	2_ground_force_vy	2_ground_force_vz	2_ground_force_px	2_ground_force_py	2_ground_force_pz	2_ground_torque_x	2_ground_torque_y	2_ground_torque_z	3_ground_force_vx	3_ground_force_vy	3_ground_force_vz	3_ground_force_px	3_ground_force_py	3_ground_force_pz	3_ground_torque_x	3_ground_torque_y	3_ground_torque_z	4_ground_force_vx	4_ground_force_vy	4_ground_force_vz	4_ground_force_px	4_ground_force_py	4_ground_force_pz	4_ground_torque_x	4_ground_torque_y	4_ground_torque_z	5_ground_force_vx	5_ground_force_vy	5_ground_force_vz	5_ground_force_px	5_ground_force_py	5_ground_force_pz	5_ground_torque_x	5_ground_torque_y	5_ground_torque_z	6_ground_force_vx	6_ground_force_vy	6_ground_force_vz	6_ground_force_px	6_ground_force_py	6_ground_force_pz	6_ground_torque_x	6_ground_torque_y	6_ground_torque_z	7_ground_force_vx	7_ground_force_vy	7_ground_force_vz	7_ground_force_px	7_ground_force_py	7_ground_force_pz	7_ground_torque_x	7_ground_torque_y	7_ground_torque_z	8_ground_force_vx	8_ground_force_vy	8_ground_force_vz	8_ground_force_px	8_ground_force_py	8_ground_force_pz	8_ground_torque_x	8_ground_torque_y	8_ground_torque_z	9_ground_force_vx	9_ground_force_vy	9_ground_force_vz	9_ground_force_px	9_ground_force_py	9_ground_force_pz	9_ground_torque_x	9_ground_torque_y	9_ground_torque_z	10_ground_force_vx	10_ground_force_vy	10_ground_force_vz	10_ground_force_px	10_ground_force_py	10_ground_force_pz	10_ground_torque_x	10_ground_torque_y	10_ground_torque_z	11_ground_force_vx	11_ground_force_vy	11_ground_force_vz	11_ground_force_px	11_ground_force_py	11_ground_force_pz	11_ground_torque_x	11_ground_torque_y	11_ground_torque_z	12_ground_force_vx	12_ground_force_vy	12_ground_force_vz	12_ground_force_px	12_ground_force_py	12_ground_force_pz	12_ground_torque_x	12_ground_torque_y	12_ground_torque_z	13_ground_force_vx	13_ground_force_vy	13_ground_force_vz	13_ground_force_px	13_ground_force_py	13_ground_force_pz	13_ground_torque_x	13_ground_torque_y	13_ground_torque_z
0.160414	-0.000000	0.000000	0.000000	0.495344	0.080161	0.386680	0.000000	0.000000	0.000000	-0.000000	0.000000	0.000000	0.504246	0.102406	0.406897	0.000000	0.000000	0.000000	-0.000000	0.000000	0.000000	0.513776	0.114286	0.403446	0.000000	0.000000	0.000000	-0.000000	0.000000	0.000000	0.512242	0.112171	0.381170	0.000000	0.000000	0.000000	-0.000000	0.000000	0.000000	0.525982	0.157454	0.432115	0.000000	0.000000	0.000000	-0.000000	0.000000	0.000000	0.517215	0.128904	0.397656	0.000000	0.000000	0.000000	-0.000000	0.000000	0.000000	0.530971	0.187372	0.374497	0.000000	0.000000	0.000000	-0.000000	0.000000	-0.000000	1.465989	0.122684	0.144555	0.000000	0.000000	0.000000	-0.000000	0.000000	-0.000000	1.432527	0.137550	0.123028	0.000000	0.000000	0.000000	-0.000000	0.000000	-0.000000	1.400424	0.143413	0.130968	0.000000	0.000000	0.000000	-0.000000	0.000000	-0.000000	1.397986	0.138251	0.151066	0.000000	0.000000	0.000000	-0.000000	0.000000	-0.000000	1.336802	0.173444	0.103223	0.000000	0.000000	0.000000	-0.000000	0.000000	-0.000000	1.374755	0.150841	0.135487	0.000000	0.000000	0.000000	-0.000000	0.000000	-0.000000	1.272081	0.180554	0.153563	0.000000	0.000000	0.000000
0.161061	-0.000000	0.000000	0.000000	0.499809	0.082460	0.386040	0.000000	0.000000	0.000000	-0.000000	0.000000	0.000000	0.509056	0.104635	0.406410	0.000000	0.000000	0.000000	-0.000000	0.000000	0.000000	0.518776	0.116507	0.402992	0.000000	0.000000	0.000000	-0.000000	0.000000	0.000000	0.517246	0.114433	0.380700	0.000000	0.000000	0.000000	-0.000000	0.000000	0.000000	0.531751	0.159570	0.431953	0.000000	0.000000	0.000000	-0.000000	0.000000	0.000000	0.522506	0.131116	0.397300	0.000000	0.000000	0.000000	-0.000000	0.000000	0.000000	0.537425	0.189551	0.374531	0.000000	0.000000	0.000000	-0.000000	0.000000	-0.000000	1.480081	0.121755	0.145137	0.000000	0.000000	0.000000	-0.000000	0.000000	-0.000000	1.446337	0.136443	0.123557	0.000000	0.000000	0.000000	-0.000000	0.000000	-0.000000	1.414123	0.142159	0.131476	0.000000	0.000000	0.000000	-0.000000	0.000000	-0.000000	1.411783	0.137003	0.151592	0.000000	0.000000	0.000000	-0.000000	0.000000	-0.000000	1.349933	0.171861	0.103625	0.000000	0.000000	0.000000	-0.000000	0.000000	-0.000000	1.388314	0.149469	0.135969	0.000000	0.000000	0.000000	-0.000000	0.000000	-0.000000	1.285078	0.178706	0.153940	0.000000	0.000000	0.000000
0.163108	-0.000000	0.000000	0.000000	0.514437	0.089731	0.384105	0.000000	0.000000	0.000000	-0.000000	0.000000	0.000000	0.524729	0.111683	0.404932	0.000000	0.000000	0.000000	-0.000000	0.000000	0.000000	0.535032	0.123523	0.401615	0.000000	0.000000	0.000000	-0.000000	0.000000	0.000000	0.533519	0.121574	0.379277	0.000000	0.000000	0.000000	-0.000000	0.000000	0.000000	0.550343	0.166244	0.431450	0.000000	0.000000	0.000000	-0.000000	0.000000	0.000000	0.539650	0.138097	0.396216	0.000000	0.000000	0.000000	-0.000000	0.000000	0.000000	0.558122	0.196390	0.374621	0.000000	0.000000	0.000000	-0.000000	0.000000	-0.000000	1.524589	0.118905	0.146985	0.000000	0.000000	0.000000	-0.000000	0.000000	-0.000000	1.489987	0.133023	0.125243	0.000000	0.000000	0.000000	-0.000000	0.000000	-0.000000	1.457445	0.138277	0.133099	0.000000	0.000000	0.000000	-0.000000	0.000000	-0.000000	1.455410	0.133143	0.153271	0.000000	0.000000	0.000000	-0.000000	0.000000	-0.000000	1.391514	0.166930	0.104921	0.000000	0.000000	0.000000	-0.000000	0.000000	-0.000000	1.431210	0.145210	0.137510	0.000000	0.000000	0.000000	-0.000000	0.000000	-0.000000	1.326269	0.172941	0.155157	0.000000	0.000000	0.000000
0.164590	-0.000000	0.000000	0.000000	0.525555	0.094987	0.382853	0.000000	0.000000	0.000000	-0.000000	0.000000	0.000000	0.536565	0.116782	0.403973	0.000000	0.000000	0.000000	-0.000000	0.000000	0.000000	0.547271	0.128595	0.400713	0.000000	0.000000	0.000000	-0.000000	0.000000	0.000000	0.545765	0.126727	0.378346	0.000000	0.000000	0.000000	-0.000000	0.000000	0.000000	0.564185	0.171065	0.431110	0.000000	0.000000	0.000000	-0.000000	0.000000	0.000000	0.552496	0.143135	0.395504	0.000000	0.000000	0.000000	-0.000000	0.000000	0.000000	0.573396	0.201292	0.374668	0.000000	0.000000	0.000000	-0.000000	0.000000	-0.000000	1.556814	0.116922	0.148333	0.000000	0.000000	0.000000	-0.000000	0.000000	-0.000000	1.521618	0.130623	0.126477	0.000000	0.000000	0.000000	-0.000000	0.000000	-0.000000	1.488856	0.135543	0.134288	0.000000	0.000000	0.000000	-0.000000	0.000000	-0.000000	1.487039	0.130429	0.154501	0.000000	0.000000	0.000000	-0.000000	0.000000	-0.000000	1.421717	0.163427	0.105878	0.000000	0.000000	0.000000	-0.000000	0.000000	-0.000000	1.462329	0.142202	0.138643	0.000000	0.000000	0.000000	-0.000000	0.000000	-0.000000	1.356222	0.168837	0.156062	0.000000	0.000000	0.000000
0.165238	-0.000000	0.000000	0.000000	0.530551	0.097274	0.382360	0.000000	0.000000	0.000000	-0.000000	0.000000	0.000000	0.541865	0.119002	0.403594	0.000000	0.000000	0.000000	-0.000000	0.000000	0.000000	0.552740	0.130803	0.400353	0.000000	0.000000	0.000000	-0.000000	0.000000	0.000000	0.551234	0.128967	0.377976	0.000000	0.000000	0.000000	-0.000000	0.000000	0.000000	0.570330	0.173164	0.430971	0.000000	0.000000	0.000000	-0.000000	0.000000	0.000000	0.558218	0.145326	0.395219	0.000000	0.000000	0.000000	-0.000000	0.000000	0.000000	0.580134	0.203416	0.374682	0.000000	0.000000	0.000000	-0.000000	0.000000	-0.000000	1.570872	0.116080	0.148923	0.000000	0.000000	0.000000	-0.000000	0.000000	-0.000000	1.535424	0.129597	0.127018	0.000000	0.000000	0.000000	-0.000000	0.000000	-0.000000	1.502572	0.134372	0.134810	0.000000	0.000000	0.000000	-0.000000	0.000000	-0.000000	1.500849	0.129266	0.155040	0.000000	0.000000	0.000000	-0.000000	0.000000	-0.000000	1.434919	0.161918	0.106301	0.000000	0.000000	0.000000	-0.000000	0.000000	-0.000000	1.475922	0.140911	0.139141	0.000000	0.000000	0.000000	-0.000000	0.000000	-0.000000	1.369323	0.167066	0.156463	0.000000	0.000000	0.000000
0.167284	-0.000000	0.000000	0.000000	0.546886	0.104452	0.381060	0.000000	0.000000	0.000000	-0.000000	0.000000	0.000000	0.559133	0.125978	0.402594	0.000000	0.000000	0.000000	-0.000000	0.000000	0.000000	0.570515	0.137736	0.399387	0.000000	0.000000	0.000000	-0.000000	0.000000	0.000000	0.568990	0.135989	0.376982	0.000000	0.000000	0.000000	-0.000000	0.000000	0.000000	0.590163	0.179764	0.430586	0.000000	0.000000	0.000000	-0.000000	0.000000	0.000000	0.576751	0.152199	0.394450	0.000000	0.000000	0.000000	-0.000000	0.000000	0.000000	0.601692	0.210053	0.374707	0.000000	0.000000	0.000000	-0.000000	0.000000	-0.000000	1.615202	0.113513	0.150795	0.000000	0.000000	0.000000	-0.000000	0.000000	-0.000000	1.578988	0.126447	0.128737	0.000000	0.000000	0.000000	-0.000000	0.000000	-0.000000	1.545870	0.130763	0.136473	0.000000	0.000000	0.000000	-0.000000	0.000000	-0.000000	1.544440	0.125691	0.156759	0.000000	0.000000	0.000000	-0.000000	0.000000	-0.000000	1.476648	0.157232	0.107652	0.000000	0.000000	0.000000	-0.000000	0.000000	-0.000000	1.518849	0.136923	0.140729	0.000000	0.000000	0.000000	-0.000000	0.000000	-0.000000	1.410767	0.161563	0.157750	0.000000	0.000000	0.000000
0.168767	-0.000000	0.000000	0.000000	0.559216	0.109601	0.380347	0.000000	0.000000	0.000000	-0.000000	0.000000	0.000000	0.572121	0.130990	0.402044	0.000000	0.000000	0.000000	-0.000000	0.000000	0.000000	0.583851	0.142710	0.398839	0.000000	0.000000	0.000000	-0.000000	0.000000	0.000000	0.582292	0.141016	0.376420	0.000000	0.000000	0.000000	-0.000000	0.000000	0.000000	0.604923	0.184505	0.430359	0.000000	0.000000	0.000000	-0.000000	0.000000	0.000000	0.590595	0.157126	0.394012	0.000000	0.000000	0.000000	-0.000000	0.000000	0.000000	0.617570	0.214788	0.374708	0.000000	0.000000	0.000000	-0.000000	0.000000	-0.000000	1.647214	0.111752	0.152166	0.000000	0.000000	0.000000	-0.000000	0.000000	-0.000000	1.610471	0.124259	0.129996	0.000000	0.000000	0.000000	-0.000000	0.000000	-0.000000	1.577178	0.128244	0.137693	0.000000	0.000000	0.000000	-0.000000	0.000000	-0.000000	1.575956	0.123200	0.158021	0.000000	0.000000	0.000000	-0.000000	0.000000	-0.000000	1.506870	0.153923	0.108642	0.000000	0.000000	0.000000	-0.000000	0.000000	-0.000000	1.549905	0.134128	0.141893	0.000000	0.000000	0.000000	-0.000000	0.000000	-0.000000	1.440812	0.157668	0.158696	0.000000	0.000000	0.000000
0.169415	-0.000000	0.000000	0.000000	0.564723	0.111835	0.380090	0.000000	0.000000	0.000000	-0.000000	0.000000	0.000000	0.577911	0.133166	0.401845	0.000000	0.000000	0.000000	-0.000000	0.000000	0.000000	0.589790	0.144867	0.398637	0.000000	0.000000	0.000000	-0.000000	0.000000	0.000000	0.588210	0.143194	0.376214	0.000000	0.000000	0.000000	-0.000000	0.000000	0.000000	0.611468	0.186563	0.430272	0.000000	0.000000	0.000000	-0.000000	0.000000	0.000000	0.596746	0.159261	0.393850	0.000000	0.000000	0.000000	-0.000000	0.000000	0.000000	0.624572	0.216835	0.374704	0.000000	0.000000	0.000000	-0.000000	0.000000	-0.000000	1.661153	0.111012	0.152771	0.000000	0.000000	0.000000	-0.000000	0.000000	-0.000000	1.624186	0.123330	0.130551	0.000000	0.000000	0.000000	-0.000000	0.000000	-0.000000	1.590821	0.127170	0.138230	0.000000	0.000000	0.000000	-0.000000	0.000000	-0.000000	1.589689	0.122141	0.158577	0.000000	0.000000	0.000000	-0.000000	0.000000	-0.000000	1.520052	0.152501	0.109077	0.000000	0.000000	0.000000	-0.000000	0.000000	-0.000000	1.563442	0.132935	0.142406	0.000000	0.000000	0.000000	-0.000000	0.000000	-0.000000	1.453924	0.155993	0.159112	0.000000	0.000000	0.000000
0.171461	-0.000000	0.000000	0.000000	0.582570	0.118831	0.379441	0.000000	0.000000	0.000000	-0.000000	0.000000	0.000000	0.596645	0.139982	0.401341	0.000000	0.000000	0.000000	-0.000000	0.000000	0.000000	0.608981	0.151613	0.398118	0.000000	0.000000	0.000000	-0.000000	0.000000	0.000000	0.607323	0.149998	0.375684	0.000000	0.000000	0.000000	-0.000000	0.000000	0.000000	0.632522	0.193000	0.430043	0.000000	0.000000	0.000000	-0.000000	0.000000	0.000000	0.616578	0.165934	0.393432	0.000000	0.000000	0.000000	-0.000000	0.000000	0.000000	0.646965	0.223217	0.374686	0.000000	0.000000	0.000000	-0.000000	0.000000	-0.000000	1.704986	0.108793	0.154712	0.000000	0.000000	0.000000	-0.000000	0.000000	-0.000000	1.667339	0.120507	0.132326	0.000000	0.000000	0.000000	-0.000000	0.000000	-0.000000	1.633765	0.123893	0.139948	0.000000	0.000000	0.000000	-0.000000	0.000000	-0.000000	1.632912	0.118914	0.160359	0.000000	0.000000	0.000000	-0.000000	0.000000	-0.000000	1.561588	0.148108	0.110454	0.000000	0.000000	0.000000	-0.000000	0.000000	-0.000000	1.606065	0.129277	0.144044	0.000000	0.000000	0.000000	-0.000000	0.000000	-0.000000	1.495267	0.150813	0.160427	0.000000	0.000000	0.000000
